#N canvas 306 364 972 465 12;
#X obj 66 124 soundfiler;
#X floatatom 123 160 15 0 0 0 - - -;
#X msg 66 97 read -resize sounds/\$1.wav \$1-sound;
#X msg 119 269 arraydialog \$2-sound \$1 3 0;
#X obj 124 235 pack 0 0;
#X obj 179 204 i \$1;
#X obj 174 182 loadbang;
#X obj 72 2 loadbang;
#X obj 79 55 i \$1;
#X obj 68 277 print;
#X obj 163 125 bng 15 250 50 0 empty empty empty 17 7 0 10 -262144
-1 -1;
#X obj 119 293 send \$1-sound;
#X connect 0 0 1 0;
#X connect 1 0 4 0;
#X connect 2 0 0 0;
#X connect 3 0 9 0;
#X connect 3 0 11 0;
#X connect 4 0 3 0;
#X connect 5 0 4 1;
#X connect 6 0 5 0;
#X connect 7 0 8 0;
#X connect 8 0 2 0;
#X connect 10 0 1 0;
